<svg width="50" height="49" viewBox="0 0 50 49" fill="none" xmlns="http://www.w3.org/2000/svg">
<path d="M24.8983 32.6185C20.3431 32.6185 16.6492 28.9245 16.6492 24.3671C16.6492 19.8102 20.3433 16.1157 24.8983 16.1157C29.455 16.1157 33.148 19.8104 33.148 24.3671C33.148 28.9247 29.4549 32.6185 24.8983 32.6185ZM44.6982 23.9872C44.6982 23.626 44.6885 23.2675 44.6689 22.9118L49.2523 19.2309C48.8919 17.3939 48.3296 15.6303 47.5871 13.9645L41.6694 13.517C40.3242 11.3931 38.5812 9.54621 36.5464 8.08007L36.5266 2.18134C34.8784 1.3169 33.1214 0.631959 31.2808 0.156708L27.2363 4.51059C26.5383 4.43529 25.8308 4.39565 25.1136 4.39565C23.3311 4.39565 21.6046 4.63517 19.9634 5.08116L15.3257 1.40692C13.5757 2.16755 11.9315 3.12504 10.4199 4.25258L11.2981 10.1004C9.56859 11.8217 8.16043 13.8642 7.16682 16.1308L1.3976 17.4683C0.910413 19.2502 0.617377 21.1127 0.544922 23.0314L5.6264 25.9705C5.88585 28.5447 6.64359 30.9708 7.8008 33.1534L5.25657 38.4835C6.34773 39.9759 7.60268 41.3418 8.99555 42.5524L14.4438 40.4173C16.5862 41.8123 19.0172 42.7994 21.6286 43.2688L24.1964 48.5585C24.5021 48.5698 24.809 48.5772 25.1187 48.5772C26.6567 48.5772 28.1628 48.4343 29.6237 48.1639L31.3559 42.5616C33.8778 41.7136 36.1707 40.3649 38.1161 38.6354L43.8438 39.9226C45.0189 38.5435 46.0431 37.0326 46.8945 35.4157L43.5743 30.5384C44.3013 28.4896 44.6978 26.2846 44.6978 23.9866L44.6982 23.9872Z" fill="#CCE2FF"/>
</svg>
