<svg width="113" height="142" viewBox="0 0 113 142" fill="none" xmlns="http://www.w3.org/2000/svg">
<path d="M24.7932 41.2039C24.8828 41.836 24.4428 42.4206 23.8107 42.5102C23.1788 42.5997 22.5943 42.1593 22.505 41.5272C21.8218 36.5684 21.1055 34.9338 20.0219 30.8013C16.9397 19.0508 14.7476 10.6914 26.7321 6.21449C34.0807 3.46925 39.1393 6.86793 42.833 12.9516C46.3167 18.6896 47.7462 24.2204 49.5394 31.6619C49.6876 32.2823 49.3048 32.9055 48.6844 33.0535C48.0643 33.2015 47.4413 32.8187 47.2932 32.1981C45.5431 24.9352 44.1753 19.6149 40.8547 14.1456C37.7438 9.02202 33.5443 6.13712 27.5386 8.38069C17.5139 12.1253 19.4866 19.6472 22.2599 30.2201C23.3592 34.4111 24.0924 36.1111 24.7936 41.2038L24.7932 41.2039Z" fill="#CCE2FF"/>
<path fill-rule="evenodd" clip-rule="evenodd" d="M32.9945 5.33725C34.4905 5.52805 35.8623 6.03296 37.1242 6.79847L37.9194 10.3835C36.827 9.34066 35.6271 8.55237 34.3025 8.08787L32.9945 5.33725ZM38.5817 11.0605L37.7223 7.18624C39.1967 8.20468 40.5158 9.58694 41.7044 11.2403L41.1884 14.7059C41.0794 14.5192 40.9682 14.3325 40.8547 14.1456C40.1548 12.993 39.3999 11.9536 38.5817 11.0605ZM41.5891 15.4092C42.5542 17.1459 43.3398 18.8837 44.0211 20.6902L44.67 16.3324C44.125 15.2027 43.5188 14.0812 42.833 12.9516C42.6011 12.5696 42.3638 12.1982 42.1209 11.8383L41.5891 15.4092ZM45.9802 26.9488C45.4843 25.0893 44.9699 23.3483 44.38 21.6746L45.0536 17.1507C45.9558 19.1319 46.685 21.1498 47.3395 23.2904L45.9802 26.9488ZM46.2013 27.7894C46.563 29.1839 46.9194 30.6467 47.2932 32.1981C47.4413 32.8187 48.0643 33.2015 48.6844 33.0535C49.3048 32.9055 49.6876 32.2823 49.5394 31.6619C48.8765 28.9109 48.2633 26.421 47.5776 24.0852L46.2013 27.7894ZM32.4135 5.2795C31.1917 5.19199 29.8894 5.30968 28.4992 5.65991L30.7606 7.63824C31.7849 7.56065 32.7478 7.65114 33.6545 7.88939L32.4135 5.2795ZM26.7321 6.21449C27.135 6.06397 27.5311 5.93192 27.9204 5.81778L30.0863 7.71254C29.275 7.82938 28.4265 8.04898 27.5386 8.38069C27.3014 8.4693 27.0709 8.56002 26.847 8.65285L24.2818 7.28072C25.0234 6.90385 25.8383 6.54838 26.7321 6.21449ZM23.8107 42.5102C24.4428 42.4206 24.8828 41.836 24.7932 41.2039L24.7936 41.2038C24.4618 38.7941 24.1229 37.144 23.7414 35.6301L21.8954 37.9159C22.1068 38.9353 22.3073 40.0921 22.505 41.5272C22.5943 42.1593 23.1788 42.5997 23.8107 42.5102ZM21.7601 37.2877L23.5856 35.0273C23.4118 34.3701 23.2289 33.7232 23.0336 33.033L23.0336 33.033L23.0336 33.0329L23.0336 33.0329C22.8717 32.4607 22.7015 31.8588 22.5211 31.1965L20.7375 33.4052L20.7957 33.6106C21.1534 34.8717 21.4682 35.9818 21.7601 37.2877ZM22.2599 30.2201C22.2937 30.349 22.3272 30.4755 22.3603 30.5998L20.571 32.8156C20.3985 32.2021 20.2161 31.5418 20.0219 30.8013C19.7396 29.7248 19.4647 28.6768 19.2075 27.6576L21.0381 25.391C21.3945 26.9209 21.817 28.5316 22.2599 30.2201ZM20.8963 24.7708C20.4646 22.8426 20.1509 21.0472 20.0508 19.3907L17.9704 21.9668C18.2322 23.569 18.6128 25.2641 19.0555 27.0501L20.8963 24.7708ZM20.6754 14.2927C20.1771 15.6009 19.9886 17.0496 20.02 18.6331L17.8674 21.2985C17.6114 19.5234 17.5162 17.8666 17.6631 16.331L20.6754 14.2927ZM21.0617 13.4276C21.4874 12.6039 22.0578 11.8423 22.7991 11.1446L19.6227 10.9897C18.5789 12.3875 17.993 13.9505 17.742 15.6739L21.0617 13.4276ZM26.2619 8.90691C25.1054 9.43307 24.14 10.0214 23.3415 10.6705L20.0064 10.5079C20.9295 9.41897 22.1557 8.43636 23.7484 7.56237L26.2619 8.90691Z" fill="#303C60"/>
<path fill-rule="evenodd" clip-rule="evenodd" d="M8.39453 49.6674L24.8431 128.926L35.6382 141.816L16.4015 49.0695L8.39453 49.6674Z" fill="#7688A1"/>
<path fill-rule="evenodd" clip-rule="evenodd" d="M24.8429 128.926L14.989 139.494L35.638 141.816L24.8429 128.926Z" fill="#7688A1"/>
<path fill-rule="evenodd" clip-rule="evenodd" d="M16.427 49.1931L35.638 141.816L112.883 96.2864L93.0357 17.4561L51.4124 34.7973L31.7554 42.8858L16.427 49.1931Z" fill="#A2D9F7"/>
<path fill-rule="evenodd" clip-rule="evenodd" d="M0.387207 50.2653L14.9892 139.494L35.6381 141.816L16.4015 49.0695L0.387207 50.2653Z" fill="#CFEAF0"/>
<path fill-rule="evenodd" clip-rule="evenodd" d="M24.8431 128.926L8.39445 49.6674L0.387207 50.2653L14.9892 139.494L24.8431 128.926Z" fill="#A2D9F7"/>
<path fill-rule="evenodd" clip-rule="evenodd" d="M0.387207 50.2654L77.209 19.6L93.0359 17.4561L16.4014 49.0695L0.387207 50.2654Z" fill="#4E95D0"/>
<path fill-rule="evenodd" clip-rule="evenodd" d="M14.989 139.494L24.8429 128.926L35.638 141.816L14.989 139.494Z" fill="#E8F5FD"/>
<path d="M42.2475 38.8348C42.3367 39.4671 41.8965 40.0516 41.2646 40.1413C40.6329 40.2306 40.128 40.341 40.0385 39.7087C39.3555 34.7499 38.0438 29.8607 36.9601 25.7282C33.878 13.9777 31.6858 5.61833 43.6704 1.14138C51.0189 -1.60387 56.0775 1.79481 59.7712 7.87852C63.2549 13.6163 65.2544 21.2482 67.0479 28.6894C66.5754 29.4581 65.1537 30.7132 64.6655 28.6637C62.9153 21.4005 61.1134 14.5417 57.7927 9.07249C54.682 3.94891 50.4824 1.064 44.4768 3.30757C34.4521 7.05221 36.4249 14.5741 39.1982 25.147C40.2975 29.3381 41.5463 33.7418 42.2478 38.8344L42.2475 38.8348Z" fill="#75A1DE"/>
<path fill-rule="evenodd" clip-rule="evenodd" d="M54.0626 1.72544C52.8008 0.959978 51.4291 0.455075 49.9334 0.264209L51.2415 3.01501C52.5659 3.47959 53.7656 4.26789 54.8579 5.31064L54.0626 1.72544ZM54.6607 2.11323L55.5202 5.98778C56.3382 6.88082 57.093 7.92002 57.7927 9.07249C57.9056 9.25848 58.0168 9.44608 58.1263 9.63525L58.6427 6.16726C57.4541 4.51395 56.1351 3.13168 54.6607 2.11323ZM60.946 15.7087C60.2373 13.823 59.4433 12.027 58.5259 10.3463L59.0592 6.76527C59.302 7.1252 59.5393 7.49657 59.7712 7.87852C60.4306 8.96456 61.0368 10.1185 61.5986 11.3261L60.946 15.7087ZM61.3051 16.6918C61.896 18.3555 62.4275 20.0836 62.9246 21.8592L64.2507 18.2901C63.576 16.161 62.8299 14.1017 61.9788 12.1669L61.3051 16.6918ZM64.6535 28.6139C64.1677 26.5986 63.6776 24.6145 63.1519 22.6829L64.4941 19.0707C65.1419 21.1833 65.7246 23.357 66.2742 25.5396L64.6535 28.6139ZM64.8768 29.2624C65.4793 30.4208 66.6317 29.3664 67.0479 28.6894C66.8536 27.8832 66.6568 27.0747 66.4561 26.2667L64.8768 29.2624ZM45.4379 0.586691C46.8281 0.236481 48.1305 0.118842 49.3523 0.206421L50.5934 2.81646C49.6866 2.5781 48.7236 2.48754 47.6992 2.56509L45.4379 0.586691ZM44.859 0.744535C44.4696 0.858712 44.0734 0.990802 43.6704 1.14138C42.7771 1.47507 41.9625 1.83034 41.2213 2.20697L43.7864 3.57922C44.0099 3.48657 44.24 3.39602 44.4768 3.30757C45.3648 2.97582 46.2134 2.75619 47.0248 2.63937L44.859 0.744535ZM41.2646 40.1413C41.8965 40.0516 42.3367 39.4671 42.2475 38.8348L42.2478 38.8344C42.1074 37.8151 41.9451 36.8234 41.7664 35.8554L39.822 38.2631C39.8996 38.7439 39.972 39.2259 40.0385 39.7087C40.1231 40.3064 40.5789 40.2404 41.1621 40.156L41.2646 40.1413ZM39.7121 37.6033L41.6444 35.2108C41.3369 33.6255 40.9881 32.103 40.6233 30.6261L38.7681 32.9233C39.1163 34.4507 39.4405 36.0184 39.7121 37.6033ZM39.5765 26.5803C39.8743 27.7046 40.177 28.8476 40.4716 30.0181L38.6253 32.3044C38.3092 30.951 37.977 29.6321 37.6492 28.364L39.4563 26.1262L39.5758 26.5775L39.5765 26.58L39.5765 26.5801L39.5765 26.5802L39.5765 26.5803ZM39.298 25.5266L39.1982 25.1471C38.7552 23.4582 38.3327 21.8472 37.9761 20.317L36.1455 22.5839C36.4028 23.6033 36.6777 24.6515 36.9601 25.7282L37.103 26.2724L37.103 26.2727C37.2309 26.7596 37.3613 27.2564 37.4929 27.7618L39.298 25.5266ZM36.989 14.3174C37.0892 15.9737 37.4027 17.7689 37.8344 19.6968L35.9935 21.9764C35.551 20.1906 35.1704 18.4957 34.9086 16.8937L36.989 14.3174ZM36.9582 13.5597C36.9269 11.9757 37.1155 10.5265 37.6142 9.21803L34.6014 11.2568C34.4543 12.7926 34.5495 14.4498 34.8057 16.2254L36.9582 13.5597ZM39.738 6.07081C38.9969 6.76819 38.4265 7.5294 38.0008 8.35274L34.6805 10.5996C34.9316 8.87632 35.5175 7.31354 36.5615 5.91585L39.738 6.07081ZM40.2805 5.59672C41.0791 4.94771 42.0447 4.35936 43.2013 3.83325L40.6878 2.48859C39.0949 3.36254 37.8685 4.34513 36.9453 5.43402L40.2805 5.59672Z" fill="#303C60"/>
<path fill-rule="evenodd" clip-rule="evenodd" d="M62.9751 50.4018C64.734 53.2156 66.4897 56.0249 68.2541 58.8272C70.2502 56.3415 72.2263 53.8837 74.1815 51.4457C74.0394 55.1445 73.9003 58.873 73.7629 62.6243C76.3677 62.8464 78.9558 63.0591 81.5311 63.2709C79.6252 65.7982 77.7079 68.3482 75.7675 70.9264C77.5066 73.7568 79.2472 76.591 80.9916 79.423C78.3757 79.3013 75.7423 79.1846 73.0879 79.0568C72.9113 82.9636 72.7401 86.8972 72.5665 90.8513C70.7651 87.9902 68.9601 85.1208 67.162 82.2481C65.0938 84.9481 62.9984 87.6716 60.8812 90.4312C61.0744 86.3995 61.2719 82.4046 61.4675 78.434C58.7052 78.2685 55.9236 78.098 53.126 77.9225C55.2615 75.2109 57.379 72.5247 59.4734 69.8642C57.6921 66.9699 55.9116 64.074 54.1352 61.1768C56.8907 61.3722 59.6265 61.559 62.3413 61.7466C62.5509 57.945 62.7639 54.1613 62.9754 50.402L62.9751 50.4018Z" fill="#A2D9F7" stroke="#4E95D0" stroke-width="3" stroke-miterlimit="22.9256"/>
</svg>
