<svg width="98" height="118" viewBox="0 0 98 118" fill="none" xmlns="http://www.w3.org/2000/svg">
<path d="M13.9636 37.6922C14.2319 38.0974 14.1205 38.6432 13.7152 38.9116C13.3101 39.1798 12.7644 39.0685 12.4963 38.6633C10.4053 35.4782 9.37851 34.5889 7.28222 32.1028C1.32147 25.0342 -2.91886 20.0056 3.85493 13.0072C8.00846 8.71578 12.5969 9.39676 17.1253 12.3702C21.396 15.1743 24.1871 18.5087 27.853 23.037C28.1578 23.415 28.0985 23.9685 27.7204 24.2734C27.3424 24.5778 26.7891 24.5188 26.4843 24.1405C22.9065 19.7208 20.2265 16.5112 16.1557 13.8382C12.3423 11.3342 8.51223 10.7253 5.11759 14.2323C-0.548617 20.0863 3.26701 24.6112 8.63038 30.9713C10.7565 33.4925 11.8163 34.4213 13.9633 37.6922H13.9636Z" fill="#990000"/>
<path fill-rule="evenodd" clip-rule="evenodd" d="M15.7154 11.5222C14.412 10.8126 13.1078 10.3153 11.8147 10.0938L13.6975 12.5077C14.5146 12.8488 15.3355 13.2997 16.1557 13.8382C16.2683 13.9122 16.3798 13.9865 16.4903 14.0613L15.7154 11.5222ZM16.3483 11.8833L17.1543 14.5242C18.3196 15.3613 19.3753 16.2527 20.3848 17.217L19.4113 14.0271C18.6918 13.4527 17.9352 12.9019 17.1253 12.3702C16.8665 12.2002 16.6075 12.0378 16.3483 11.8833ZM23.7987 20.8836C22.9033 19.8332 22.0301 18.8606 21.1317 17.9517L20.1092 14.6013C21.3201 15.6273 22.4348 16.729 23.5374 17.9303L23.7987 20.8836ZM24.3594 21.5476C25.0428 22.3641 25.7444 23.2264 26.4843 24.1405C26.7891 24.5188 27.3424 24.5778 27.7204 24.2734C28.0985 23.9685 28.1578 23.415 27.853 23.037C26.5222 21.3931 25.3067 19.9065 24.0938 18.5456L24.3594 21.5476ZM7.94121 10.333C8.9833 10.0011 10.0411 9.90232 11.1079 10.0005L12.808 12.1803C11.7794 11.8537 10.7593 11.7152 9.75692 11.8094L7.94121 10.333ZM7.39157 10.5305C6.56435 10.8619 5.74788 11.3459 4.94554 12.0007L7.16443 12.6256C7.79487 12.2745 8.43625 12.0395 9.08604 11.9083L7.39157 10.5305ZM13.7152 38.9116C14.1205 38.6432 14.2319 38.0974 13.9636 37.6922H13.9633C12.9685 36.1767 12.2072 35.164 11.465 34.2627L10.9428 36.4416C11.4084 37.0591 11.9106 37.7711 12.4963 38.6633C12.7644 39.0685 13.3101 39.1798 13.7152 38.9116ZM10.5507 35.9324L11.0653 33.7852C10.7467 33.4101 10.4246 33.0425 10.082 32.6516L10.0815 32.6511L10.0814 32.651L10.0813 32.6509C9.7972 32.3268 9.49895 31.9865 9.17693 31.6125L8.67353 33.7132L8.7321 33.7799C9.37403 34.5112 9.94094 35.1571 10.5507 35.9324ZM8.63038 30.9713C8.67927 31.0292 8.7276 31.0864 8.77539 31.1427L8.26986 33.2523C7.9646 32.9025 7.63889 32.5258 7.28222 32.1028C6.75315 31.4754 6.23764 30.8641 5.74218 30.266L6.25876 28.1109C6.99126 29.0275 7.79191 29.977 8.63038 30.9713ZM5.86429 27.6117C4.97848 26.477 4.20847 25.3903 3.61397 24.3279L3.02932 26.7676C3.71 27.7441 4.49329 28.7441 5.34391 29.7826L5.86429 27.6117ZM2.64925 26.2082L3.26075 23.6565C2.762 22.6415 2.43799 21.6442 2.34217 20.6434L0.955714 23.0001C1.34873 24.058 1.92993 25.1202 2.64925 26.2082ZM0.7449 22.3724L2.32139 19.6928C2.35556 19.0541 2.48867 18.4113 2.73444 17.7589L0.516147 18.6849C0.278262 19.9361 0.380045 21.1543 0.7449 22.3724ZM4.3652 15.0678C3.78928 15.7597 3.34586 16.4344 3.02101 17.0975L0.655866 18.0848C0.934076 17.0753 1.43723 16.0414 2.20447 14.9661L4.3652 15.0678ZM4.78435 14.587C4.89158 14.4693 5.00263 14.3511 5.11759 14.2323C5.59898 13.735 6.08913 13.3204 6.58674 12.9823L4.49049 12.392C4.27756 12.5845 4.06569 12.7895 3.85493 13.0072C3.36962 13.5086 2.94085 13.9999 2.56519 14.4825L4.78435 14.587Z" fill="#FB765C"/>
<path fill-rule="evenodd" clip-rule="evenodd" d="M8.25684 45.9197L52.8722 104.77L66.8181 111.156L14.6194 42.287L8.25684 45.9197Z" fill="#7688A1"/>
<path fill-rule="evenodd" clip-rule="evenodd" d="M52.8721 104.77L48.8958 117.341L66.8179 111.156L52.8721 104.77Z" fill="#7688A1"/>
<path fill-rule="evenodd" clip-rule="evenodd" d="M14.6892 42.3783L66.8181 111.155L97.4469 60.3584L50.1992 3.19421L37.871 16.7979L24.8459 31.1706L14.6892 42.3783Z" fill="#F5A880"/>
<path fill-rule="evenodd" clip-rule="evenodd" d="M1.89404 49.5524L48.8958 117.341L66.818 111.156L14.6195 42.287L1.89404 49.5524Z" fill="#FACDB3"/>
<path fill-rule="evenodd" clip-rule="evenodd" d="M52.8722 104.77L8.2569 45.9196L1.89404 49.5523L48.8958 117.341L52.8722 104.77Z" fill="#FCAA82"/>
<path fill-rule="evenodd" clip-rule="evenodd" d="M1.89404 49.552L37.7593 11.3432L49.9589 3.37018L14.6195 42.2866L1.89404 49.552Z" fill="#A62B21"/>
<path fill-rule="evenodd" clip-rule="evenodd" d="M48.8958 117.341L52.8721 104.77L66.8179 111.156L48.8958 117.341Z" fill="#FECBB4"/>
<path d="M52.8721 104.77L8.25684 45.9196" stroke="#FECBB4" stroke-width="0.0762097" stroke-miterlimit="22.9256"/>
<path d="M25.1863 30.3521C25.4544 30.7575 25.3431 31.3034 24.938 31.5717C24.5329 31.8398 24.2218 32.081 23.9537 31.6757C21.8629 28.4905 19.3626 25.559 17.2663 23.0731C11.3056 16.0045 7.06528 10.9759 13.8391 3.97753C17.9926 -0.313877 22.581 0.367101 27.1095 3.34053C31.3801 6.14466 35.2502 10.7364 38.916 15.2645C38.8426 15.9477 38.2758 17.2753 37.2699 16.0262C33.6918 11.6063 30.2107 7.48153 26.1396 4.80858C22.3263 2.30455 18.4962 1.69546 15.1015 5.20265C9.43533 11.0567 13.2509 15.5815 18.6143 21.9416C20.7404 24.4628 23.0389 27.0814 25.1861 30.3521H25.1863Z" fill="#CC3300"/>
<path fill-rule="evenodd" clip-rule="evenodd" d="M21.799 1.06426C23.0918 1.28568 24.3956 1.78285 25.6987 2.49219L26.4738 5.03223C26.3629 4.95662 26.2514 4.88208 26.1396 4.80864C25.3196 4.27016 24.4987 3.81931 23.6817 3.47818L21.799 1.06426ZM27.1401 5.50252L26.3316 2.85319C26.591 3.00781 26.8503 3.17045 27.1095 3.34059C27.8891 3.85251 28.6554 4.42401 29.4096 5.04382L30.3891 8.25388C29.3382 7.24646 28.2603 6.32073 27.1401 5.50252ZM31.1356 8.98718C32.0318 9.88833 32.9106 10.8457 33.7819 11.8426L33.5269 8.96089C32.415 7.77331 31.2789 6.65197 30.1141 5.63962L31.1356 8.98718ZM37.1886 15.9259C36.2372 14.7514 35.2923 13.5984 34.341 12.4887L34.0819 9.56114C35.1752 10.7579 36.2455 12.0125 37.2973 13.2836L37.1886 15.9259ZM37.6691 16.41C38.4258 16.9138 38.8529 15.8514 38.916 15.2645C38.5375 14.797 38.1569 14.3289 37.7739 13.8621L37.6691 16.41ZM21.0922 0.970947C20.0253 0.872713 18.9675 0.971499 17.9254 1.30339L19.7411 2.77973C20.7435 2.68551 21.7636 2.82404 22.7922 3.1507L21.0922 0.970947ZM14.9297 2.97114C15.732 2.31624 16.5485 1.83226 17.3757 1.50085L19.0701 2.87859C18.4203 3.00981 17.7788 3.24477 17.1483 3.59592L14.9297 2.97114ZM24.938 31.5718C25.3431 31.3034 25.4544 30.7575 25.1863 30.3521H25.1861C24.7715 29.7206 24.3512 29.1133 23.9277 28.5264L23.378 30.8194C23.5728 31.1027 23.7649 31.3882 23.9537 31.6758C24.2071 32.0588 24.4989 31.8643 24.8722 31.6156L24.938 31.5718ZM22.9954 30.2708L23.5405 27.9967C22.8416 27.052 22.1357 26.1589 21.4331 25.2997L20.9089 27.4869C21.6159 28.3844 22.3193 29.3142 22.9954 30.2708ZM19.3427 22.8026L19.3427 22.8026L19.3428 22.8027L19.3428 22.8027L19.3428 22.8028L19.3429 22.8028L19.3429 22.8028C19.8997 23.46 20.4656 24.1279 21.035 24.8158L20.514 26.9894C19.8864 26.2041 19.2593 25.4451 18.6496 24.7163L19.16 22.5869L19.3409 22.8005L19.3419 22.8017L19.3426 22.8025L19.3427 22.8026L19.3427 22.8026ZM18.7593 22.1134L18.2497 24.2397C18.0089 23.9533 17.7715 23.6719 17.5384 23.3957L17.5384 23.3956L17.5383 23.3956L17.2663 23.0731C16.7372 22.4457 16.2216 21.8342 15.7261 21.2361L16.2426 19.0811C16.9751 19.9978 17.7758 20.9473 18.6143 21.9416L18.7593 22.1134ZM15.8481 18.5819L15.3278 20.7527C14.4771 19.7141 13.6938 18.7141 13.0131 17.7374L13.5977 15.2979C14.1922 16.3604 14.9623 17.4472 15.8481 18.5819ZM13.2445 14.6264C12.7457 13.6113 12.4218 12.614 12.3261 11.6132L10.9396 13.9699C11.3326 15.0278 11.9137 16.09 12.633 17.178L13.2445 14.6264ZM10.7289 13.3422L12.3054 10.6624C12.3396 10.0238 12.4728 9.38117 12.7185 8.7289L10.5004 9.6548C10.2624 10.906 10.3641 12.1241 10.7289 13.3422ZM10.6401 9.05469L13.0052 8.06749C13.33 7.40437 13.7735 6.72968 14.3494 6.03786L12.1888 5.93623C11.4216 7.01145 10.9184 8.04531 10.6401 9.05469ZM15.1015 5.20271C14.9867 5.32136 14.8757 5.43947 14.7686 5.55706L12.5495 5.45268C12.9251 4.97011 13.3538 4.47891 13.8391 3.9776C14.0498 3.75985 14.2617 3.5549 14.4746 3.36241L16.5707 3.95266C16.0731 4.29079 15.5829 4.70536 15.1015 5.20271Z" fill="#FB765C"/>
<path fill-rule="evenodd" clip-rule="evenodd" d="M44.6736 34.716C47.2256 36.3444 49.7733 37.9706 52.3253 39.5874C52.9955 36.7567 53.6604 33.9567 54.3157 31.1814C55.6484 34.2845 56.9951 37.411 58.3521 40.5554C60.5854 39.7169 62.8007 38.8774 65.0056 38.0418C64.4258 40.8714 63.8458 43.7242 63.2575 46.6093C65.7995 48.2593 68.3444 49.9117 70.8915 51.561C68.6884 52.4866 66.473 53.4233 64.236 54.3589C65.6218 57.6469 67.0223 60.9548 68.4291 64.2806C65.8238 62.6297 63.212 60.9733 60.6046 59.3118C59.9587 62.3473 59.3 65.4131 58.637 68.5169C57.216 65.1192 55.813 61.7508 54.4178 58.4027C52.0772 59.3496 49.7186 60.3001 47.3449 61.2526C48.0416 58.1809 48.7337 55.1372 49.4163 52.1242C46.8145 50.4381 44.2126 48.7504 41.6133 47.06C43.9601 46.1405 46.2874 45.2215 48.5975 44.3114C47.2801 41.0969 45.9727 37.8963 44.6736 34.716V34.716Z" stroke="#CC3300" stroke-width="3" stroke-miterlimit="22.9256"/>
</svg>
