<svg width="26" height="63" viewBox="0 0 26 63" fill="none" xmlns="http://www.w3.org/2000/svg">
<path d="M23.2824 58.9219C23.1079 58.3425 22.4968 58.0144 21.9176 58.1889C21.3383 58.3635 21.0101 58.9747 21.1846 59.554L21.9031 61.9396C22.0775 62.5189 22.6886 62.8471 23.2679 62.6725C23.8472 62.498 24.1754 61.8868 24.0009 61.3074L23.2824 58.9219Z" fill="#9D9E9E"/>
<path fill-rule="evenodd" clip-rule="evenodd" d="M17.8215 56.1937L24.3163 54.2365L24.9634 56.3853C25.3195 57.5672 24.6439 58.8251 23.4624 59.1813L21.2639 59.844C20.0824 60.1999 18.8247 59.5244 18.4687 58.3425L17.8215 56.1937Z" fill="#D9DADA"/>
<path fill-rule="evenodd" clip-rule="evenodd" d="M3.27041 1.94541L6.48903 0.975669C8.38589 0.403971 10.405 1.48867 10.9765 3.3859L11.5047 5.1395L12.4383 4.85807L11.5292 1.83973L13.8281 1.14667L22.9011 31.2725L20.602 31.9653L16.0397 16.8164L15.1063 17.0978L25.5209 51.6788C26.0925 53.5762 25.0082 55.5959 23.1115 56.1676L19.8928 57.1374C17.996 57.7091 15.9769 56.6244 15.4054 54.7272L0.861076 6.43427C0.289547 4.53685 1.37412 2.51711 3.2706 1.94541H3.27041Z" fill="#E30016"/>
</svg>
