<svg width="93" height="113" viewBox="0 0 93 113" fill="none" xmlns="http://www.w3.org/2000/svg">
<path fill-rule="evenodd" clip-rule="evenodd" d="M28.9352 5.47745C32.3729 3.65176 35.8106 1.82587 39.2484 0.000175476C61.6748 40.986 73.7706 89.8179 91.1676 98.1323L36.0946 112.938C24.2518 99.9633 14.5288 75.5747 0.585938 20.5283L11.689 14.6359C20.1427 28.0109 22.387 32.8744 29.8842 46.5132L41.1158 41.0435C38.0317 33.5775 33.8295 21.8053 28.9352 5.47764V5.47745Z" fill="#A2D9F7"/>
<path fill-rule="evenodd" clip-rule="evenodd" d="M28.9354 5.47746L39.2486 0.000366211C67.254 30.4857 97.6979 81.4897 92.2934 97.83L36.0948 112.938C23.4126 99.1138 9.34763 59.576 0.586426 20.5285L11.6247 14.6697C15.1621 26.5257 18.6993 38.3817 22.2365 50.2379C28.5298 47.1731 34.8232 44.1083 41.1162 41.0435C38.1235 32.7038 32.6427 18.7703 28.9354 5.47764V5.47746Z" fill="#CFEAF0" fill-opacity="0.501961"/>
<path fill-rule="evenodd" clip-rule="evenodd" d="M40.6558 59.809C40.4558 62.6308 40.2566 65.4484 40.0479 68.2638C37.5518 67.1903 35.0813 66.1299 32.635 65.076C34.2201 67.804 35.8149 70.5559 37.4174 73.3253C35.5449 74.5342 33.6817 75.7291 31.8269 76.9184C34.2721 78.0593 36.7348 79.2125 39.226 80.378C39.0477 83.2046 38.8697 86.0344 38.688 88.8642C40.6092 87.7267 42.5453 86.5857 44.4929 85.428C46.1869 88.2991 47.888 91.1921 49.5988 94.1001C49.8118 91.2255 50.024 88.3433 50.23 85.4612C52.8662 86.6671 55.5323 87.8799 58.2293 89.1113C56.4725 86.1527 54.7275 83.2239 52.9935 80.3123C55.0074 79.0832 57.0335 77.8426 59.07 76.5917C56.3784 75.4039 53.7104 74.2282 51.0703 73.0624C51.2548 70.1711 51.438 67.2786 51.618 64.3867C49.6211 65.6356 47.6362 66.8702 45.6671 68.0972C43.9898 65.3185 42.3176 62.555 40.656 59.809H40.6558Z" stroke="#4E95D0" stroke-width="3" stroke-miterlimit="22.9256"/>
<path fill-rule="evenodd" clip-rule="evenodd" d="M39.2485 0.000188638C61.6748 40.9861 73.7706 89.8179 91.1675 98.1325L92.2933 97.8298C97.6976 81.4897 67.2538 30.4855 39.2485 0V0.000188638Z" fill="#A2D9F7"/>
</svg>
