<svg width="50" height="49" viewBox="0 0 50 49" fill="none" xmlns="http://www.w3.org/2000/svg">
<path d="M25.1978 32.9335C20.6426 32.9335 16.9487 29.2394 16.9487 24.6821C16.9487 20.1251 20.6427 16.4307 25.1978 16.4307C29.7545 16.4307 33.4475 20.1253 33.4475 24.6821C33.4475 29.2396 29.7543 32.9335 25.1978 32.9335ZM44.9976 24.3022C44.9976 23.9409 44.988 23.5825 44.9684 23.2267L49.5517 19.5458C49.1913 17.7088 48.629 15.9453 47.8865 14.2794L41.9689 13.8319C40.6237 11.708 38.8806 9.86118 36.8458 8.39504L36.826 2.49632C35.1779 1.63188 33.4209 0.94693 31.5803 0.47168L27.5358 4.82554C26.8378 4.75023 26.1303 4.71062 25.4131 4.71062C23.6306 4.71062 21.9041 4.9501 20.263 5.3961L15.6253 1.72191C13.8752 2.48253 12.231 3.44 10.7195 4.56754L11.5976 10.4153C9.86808 12.1366 8.45993 14.1792 7.46631 16.4458L1.69716 17.7832C1.20997 19.5651 0.916937 21.4276 0.844482 23.3464L5.92597 26.2854C6.18542 28.8597 6.94316 31.2858 8.10036 33.4684L5.55616 38.7984C6.64732 40.2908 7.90225 41.6567 9.29512 42.8675L14.7434 40.7323C16.8857 42.1273 19.3167 43.1144 21.928 43.5838L24.4959 48.8734C24.8016 48.8847 25.1085 48.8921 25.4182 48.8921C26.9561 48.8921 28.4622 48.7493 29.9232 48.4788L31.6553 42.8766C34.1773 42.0285 36.4702 40.6798 38.4156 38.9504L44.1433 40.2376C45.3184 38.8585 46.3426 37.3476 47.1939 35.7306L43.8738 30.8534C44.6008 28.8046 44.9972 26.5995 44.9972 24.3016L44.9976 24.3022Z" fill="#CCE2FF"/>
</svg>
