<svg width="64" height="65" viewBox="0 0 64 65" fill="none" xmlns="http://www.w3.org/2000/svg">
<path d="M7.28395 31.1989L21.6523 39.7912C22.2485 40.1472 22.6193 40.7666 22.6703 41.4525L23.7318 58.1646L36.3478 47.1536C36.8643 46.6961 37.5768 46.5287 38.2458 46.7012L54.4612 50.8479L47.8878 35.4466C47.6188 34.8166 47.6769 34.0901 48.0478 33.5052L56.999 19.3592L40.3255 20.8533C39.6419 20.9144 38.9657 20.6351 38.5292 20.1013L27.8474 7.21009L24.1099 23.5359C23.9573 24.2074 23.4846 24.7608 22.8448 25.0146L7.28377 31.1987L7.28395 31.1989ZM21.914 64.6281C21.6452 64.6281 21.3759 64.572 21.1144 64.465C20.3798 64.1604 19.8781 63.4643 19.8274 62.6671L18.5622 42.8194L1.49585 32.6166C0.81224 32.2049 0.419787 31.4426 0.485072 30.6497C0.543376 29.8526 1.05981 29.1666 1.79398 28.8714L20.2783 21.5292L24.7065 2.1448C24.8811 1.36757 25.4845 0.757965 26.2626 0.574508C27.0334 0.386144 27.8478 0.661106 28.3569 1.27584L41.0458 16.5856L60.8533 14.8069C61.6458 14.7358 62.4096 15.1219 62.8239 15.8027C63.2385 16.4837 63.2313 17.3374 62.8094 18.0133L52.1712 34.8169L59.9808 53.1088C60.2863 53.8405 60.1625 54.6842 59.6463 55.2939C59.1227 55.8984 58.3083 56.1528 57.5375 55.9545L38.2755 51.0308L23.2962 64.1096C22.9107 64.4507 22.4163 64.6283 21.9144 64.6283L21.914 64.6281Z" fill="#A2D9F7" stroke="#A2D9F7" stroke-width="0.0762097" stroke-miterlimit="10"/>
</svg>
